<svg width="183" height="61" viewBox="0 0 183 61" fill="none" xmlns="http://www.w3.org/2000/svg">
<g clip-path="url(#clip0_103_39535)">
<path d="M167.953 0.00019825H14.5382C13.979 0.00019825 13.4265 0.00019825 12.8687 0.00324825C12.4018 0.00629825 11.9387 0.0151585 11.4673 0.0226157C10.4433 0.034666 9.4217 0.124755 8.41138 0.292098C7.40248 0.463086 6.42518 0.785445 5.51254 1.24827C4.60101 1.71502 3.76813 2.3215 3.0441 3.04573C2.31626 3.76792 1.70956 4.60267 1.24731 5.51789C0.783788 6.43129 0.46238 7.41008 0.294187 8.42046C0.124394 9.42956 0.0330278 10.4503 0.0209065 11.4735C0.00675449 11.9411 0.00525998 12.4102 -0.00219727 12.8778V48.1271C0.00525998 48.6006 0.00675449 49.0593 0.0209065 49.533C0.0330315 50.5561 0.124398 51.5768 0.294187 52.5859C0.461915 53.5968 0.783343 54.5762 1.24731 55.4899C1.70935 56.4022 2.31614 57.2335 3.0441 57.9517C3.76538 58.6792 4.59881 59.2861 5.51254 59.7492C6.42517 60.2133 7.40236 60.5376 8.41138 60.7112C9.42188 60.8772 10.4434 60.9673 11.4673 60.9808C11.9387 60.9912 12.4018 60.9972 12.8687 60.9972C13.4265 61.0002 13.979 61.0002 14.5382 61.0002H167.953C168.501 61.0002 169.058 61.0002 169.606 60.9972C170.071 60.9972 170.548 60.9912 171.012 60.9808C172.034 60.9681 173.054 60.8779 174.062 60.7112C175.075 60.5364 176.055 60.2122 176.972 59.7492C177.885 59.2858 178.718 58.6789 179.439 57.9517C180.165 57.2307 180.773 56.4 181.241 55.4899C181.701 54.5755 182.019 53.5962 182.185 52.5859C182.355 51.5767 182.449 50.5562 182.468 49.533C182.474 49.0593 182.474 48.6006 182.474 48.1271C182.486 47.573 182.486 47.022 182.486 46.459V14.5428C182.486 13.9843 182.486 13.4303 182.474 12.8778C182.474 12.4102 182.474 11.9411 182.468 11.4734C182.449 10.4501 182.355 9.42963 182.185 8.42039C182.019 7.4106 181.701 6.43189 181.241 5.51783C180.299 3.68337 178.806 2.19014 176.972 1.24814C176.055 0.786438 175.074 0.464165 174.062 0.291961C173.054 0.12388 172.034 0.0337601 171.012 0.0224022C170.548 0.0149602 170.071 0.00602375 169.606 0.00305C169.058 0 168.501 0.00019825 167.953 0.00019825Z" fill="#A6A6A6"/>
<path d="M12.8775 59.6657C12.4129 59.6657 11.9594 59.6597 11.4985 59.6494C10.5435 59.6369 9.59072 59.5538 8.64802 59.4006C7.76899 59.2492 6.91746 58.9676 6.12149 58.5651C5.33282 58.1659 4.6135 57.6424 3.99107 57.0148C3.35963 56.3945 2.83392 55.6751 2.43479 54.8851C2.03126 54.09 1.75199 53.2376 1.60671 52.3579C1.44983 51.4125 1.36495 50.4567 1.3528 49.4985C1.34313 49.1769 1.33047 48.106 1.33047 48.106V12.8777C1.33047 12.8777 1.34396 11.8233 1.35288 11.5135C1.36451 10.5568 1.44889 9.60244 1.60531 8.65858C1.75085 7.7764 2.03034 6.92163 2.43409 6.12388C2.83175 5.33441 3.35454 4.61448 3.98218 3.992C4.60911 3.36362 5.33074 2.83746 6.12074 2.43274C6.91488 2.03149 7.76481 1.75186 8.64206 1.60323C9.58786 1.44854 10.5439 1.36491 11.5022 1.35304L12.8782 1.33442H169.6L170.993 1.35378C171.942 1.36507 172.89 1.44795 173.827 1.60173C174.713 1.75223 175.572 2.03381 176.375 2.43721C177.958 3.25285 179.245 4.54327 180.058 6.1276C180.455 6.91985 180.73 7.76764 180.874 8.6422C181.032 9.59381 181.121 10.5557 181.139 11.5202C181.143 11.9521 181.143 12.416 181.143 12.8777C181.156 13.4495 181.156 13.9939 181.156 14.5426V46.4589C181.156 47.0129 181.156 47.5535 181.143 48.0986C181.143 48.5945 181.143 49.0488 181.137 49.5163C181.12 50.4636 181.033 51.4084 180.877 52.3429C180.735 53.229 180.457 54.088 180.053 54.8897C179.651 55.6711 179.129 56.3843 178.505 57.0029C177.882 57.6339 177.161 58.1604 176.371 58.5622C175.57 58.9678 174.712 59.2505 173.827 59.4006C172.884 59.5546 171.931 59.6377 170.976 59.6494C170.53 59.6597 170.062 59.6657 169.608 59.6657L167.955 59.6687L12.8775 59.6657Z" fill="black"/>
<path d="M37.7695 30.9584C37.7859 29.6855 38.124 28.4375 38.7524 27.3304C39.3807 26.2233 40.2789 25.2932 41.3633 24.6265C40.6744 23.6426 39.7656 22.8329 38.709 22.2617C37.6524 21.6905 36.4772 21.3736 35.2768 21.336C32.7159 21.0672 30.2333 22.8684 28.9283 22.8684C27.5981 22.8684 25.5889 21.3627 23.4254 21.4072C22.0259 21.4524 20.662 21.8594 19.4666 22.5884C18.2712 23.3175 17.285 24.3437 16.6042 25.5672C13.6548 30.6736 15.8548 38.1782 18.68 42.3057C20.0935 44.3269 21.7455 46.5846 23.9071 46.5045C26.0224 46.4168 26.8124 45.1557 29.3657 45.1557C31.8953 45.1557 32.6365 46.5045 34.842 46.4536C37.1118 46.4168 38.5418 44.4235 39.9058 42.3832C40.9214 40.943 41.7029 39.3513 42.2214 37.6671C40.9027 37.1094 39.7774 36.1758 38.9857 34.9828C38.194 33.7898 37.7711 32.3901 37.7695 30.9584Z" fill="white"/>
<path d="M33.6025 18.6214C34.84 17.1357 35.4497 15.2262 35.3021 13.2982C33.4114 13.4968 31.6648 14.4004 30.4105 15.8291C29.7973 16.5271 29.3276 17.339 29.0283 18.2186C28.729 19.0982 28.606 20.0281 28.6664 20.9552C29.6121 20.965 30.5477 20.76 31.4027 20.3557C32.2577 19.9515 33.0098 19.3585 33.6025 18.6214Z" fill="white"/>
<path d="M64.5068 41.3878H57.2884L55.5549 46.5064H52.4975L59.3347 27.569H62.5112L69.3484 46.5064H66.2388L64.5068 41.3878ZM58.036 39.0259H63.7578L60.9372 30.7188H60.8582L58.036 39.0259Z" fill="white"/>
<path d="M84.1129 39.6034C84.1129 43.8939 81.8165 46.6505 78.351 46.6505C77.4731 46.6965 76.6001 46.4942 75.8318 46.067C75.0635 45.6398 74.431 45.0049 74.0068 44.2349H73.9413V51.0736H71.1072V32.6992H73.8505V34.9956H73.9026C74.3463 34.2294 74.9894 33.5977 75.7636 33.1679C76.5377 32.7381 77.4139 32.5262 78.2989 32.5547C81.803 32.5547 84.1129 35.3247 84.1129 39.6034ZM81.2 39.6034C81.2 36.8081 79.7554 34.9703 77.5513 34.9703C75.3859 34.9703 73.9294 36.8468 73.9294 39.6034C73.9294 42.3853 75.3859 44.2484 77.5513 44.2484C79.7554 44.2484 81.2 42.424 81.2 39.6034Z" fill="white"/>
<path d="M99.3094 39.6034C99.3094 43.8939 97.013 46.6505 93.5475 46.6505C92.6696 46.6965 91.7965 46.4942 91.0283 46.067C90.26 45.6398 89.6275 45.0049 89.2033 44.2349H89.1377V51.0736H86.3037V32.6992H89.0469V34.9956H89.099C89.5427 34.2293 90.1859 33.5977 90.96 33.1679C91.7341 32.7381 92.6103 32.5262 93.4953 32.5547C96.9996 32.5547 99.3094 35.3247 99.3094 39.6034ZM96.3964 39.6034C96.3964 36.808 94.9518 34.9703 92.7477 34.9703C90.5824 34.9703 89.1259 36.8468 89.1259 39.6034C89.1259 42.3853 90.5824 44.2484 92.7477 44.2484C94.9518 44.2484 96.3964 42.424 96.3964 39.6034Z" fill="white"/>
<path d="M109.355 41.2301C109.565 43.1081 111.389 44.3411 113.882 44.3411C116.271 44.3411 117.989 43.108 117.989 41.4147C117.989 39.9448 116.953 39.0647 114.498 38.4616L112.044 37.8703C108.567 37.0304 106.952 35.4041 106.952 32.7651C106.952 29.4977 109.8 27.2534 113.843 27.2534C117.845 27.2534 120.588 29.4977 120.68 32.7651H117.819C117.648 30.8753 116.086 29.7345 113.803 29.7345C111.52 29.7345 109.958 30.8887 109.958 32.5686C109.958 33.9074 110.956 34.6952 113.396 35.2983L115.483 35.8106C119.368 36.7295 120.983 38.2903 120.983 41.0602C120.983 44.6032 118.161 46.8222 113.672 46.8222C109.472 46.8222 106.637 44.6553 106.453 41.23L109.355 41.2301Z" fill="white"/>
<path d="M127.098 29.4319V32.6994H129.724V34.9437H127.098V42.5553C127.098 43.7378 127.624 44.2888 128.778 44.2888C129.09 44.2833 129.401 44.2615 129.71 44.2232V46.4541C129.191 46.5511 128.664 46.595 128.136 46.5852C125.341 46.5852 124.251 45.5352 124.251 42.8576V34.9437H122.243V32.6994H124.25V29.4319H127.098Z" fill="white"/>
<path d="M131.247 39.6033C131.247 35.2592 133.805 32.5294 137.795 32.5294C141.798 32.5294 144.345 35.2591 144.345 39.6033C144.345 43.9594 141.811 46.6773 137.795 46.6773C133.78 46.6773 131.247 43.9594 131.247 39.6033ZM141.457 39.6033C141.457 36.6233 140.091 34.8645 137.795 34.8645C135.498 34.8645 134.134 36.6367 134.134 39.6033C134.134 42.5952 135.498 44.3407 137.795 44.3407C140.091 44.3407 141.457 42.5952 141.457 39.6033Z" fill="white"/>
<path d="M146.678 32.6996H149.381V35.0496H149.447C149.63 34.3157 150.06 33.667 150.664 33.2128C151.269 32.7585 152.012 32.5263 152.768 32.5551C153.094 32.554 153.42 32.5895 153.739 32.6609V35.3118C153.327 35.1858 152.896 35.1279 152.465 35.1405C152.054 35.1238 151.643 35.1964 151.262 35.3533C150.881 35.5102 150.539 35.7477 150.258 36.0495C149.978 36.3513 149.766 36.7102 149.637 37.1016C149.508 37.493 149.466 37.9077 149.512 38.3171V46.5065H146.678L146.678 32.6996Z" fill="white"/>
<path d="M166.806 42.4508C166.424 44.9572 163.984 46.6773 160.861 46.6773C156.844 46.6773 154.351 43.9862 154.351 39.6688C154.351 35.3381 156.857 32.5294 160.741 32.5294C164.561 32.5294 166.964 35.1534 166.964 39.3397V40.3107H157.212V40.482C157.167 40.9901 157.231 41.502 157.399 41.9837C157.567 42.4653 157.835 42.9057 158.186 43.2756C158.538 43.6455 158.964 43.9364 159.436 44.129C159.908 44.3216 160.416 44.4115 160.926 44.3928C161.596 44.4555 162.268 44.3004 162.842 43.9505C163.417 43.6006 163.863 43.0746 164.115 42.4508L166.806 42.4508ZM157.225 38.33H164.128C164.153 37.8731 164.084 37.4159 163.925 36.9871C163.765 36.5582 163.518 36.167 163.2 35.838C162.882 35.5089 162.5 35.2492 162.077 35.075C161.654 34.9008 161.199 34.816 160.741 34.8258C160.28 34.823 159.822 34.9117 159.395 35.0867C158.968 35.2617 158.58 35.5195 158.253 35.8453C157.926 36.1711 157.667 36.5584 157.491 36.9848C157.314 37.4113 157.224 37.8685 157.225 38.33Z" fill="white"/>
<path d="M57.6862 13.3147C58.2803 13.2721 58.8765 13.3618 59.4318 13.5775C59.9871 13.7932 60.4876 14.1294 60.8972 14.5619C61.3068 14.9945 61.6153 15.5125 61.8004 16.0787C61.9855 16.6449 62.0427 17.2451 61.9678 17.8361C61.9678 20.7431 60.3966 22.4141 57.6862 22.4141H54.3994V13.3147H57.6862ZM55.8127 21.1273H57.5283C57.9529 21.1526 58.3778 21.083 58.772 20.9235C59.1663 20.764 59.52 20.5185 59.8075 20.205C60.0949 19.8915 60.3089 19.5179 60.4337 19.1113C60.5586 18.7047 60.5912 18.2754 60.5292 17.8546C60.5867 17.4355 60.5507 17.0088 60.424 16.6052C60.2972 16.2016 60.0828 15.831 59.796 15.52C59.5092 15.2091 59.1571 14.9653 58.7651 14.8064C58.373 14.6474 57.9507 14.5771 57.5283 14.6006H55.8127V21.1273Z" fill="white"/>
<path d="M63.5641 18.9777C63.5209 18.5265 63.5725 18.0711 63.7156 17.641C63.8587 17.2108 64.0901 16.8153 64.3951 16.4799C64.7 16.1444 65.0716 15.8763 65.4862 15.6929C65.9008 15.5095 66.3491 15.4148 66.8024 15.4148C67.2558 15.4148 67.7041 15.5095 68.1187 15.6929C68.5333 15.8763 68.9049 16.1444 69.2098 16.4799C69.5147 16.8153 69.7462 17.2108 69.8893 17.641C70.0324 18.0711 70.084 18.5265 70.0408 18.9777C70.0848 19.4295 70.0338 19.8854 69.8911 20.3163C69.7484 20.7471 69.5171 21.1433 69.2121 21.4795C68.9071 21.8156 68.5352 22.0842 68.1202 22.268C67.7052 22.4518 67.2563 22.5468 66.8024 22.5468C66.3486 22.5468 65.8997 22.4518 65.4847 22.268C65.0697 22.0842 64.6978 21.8156 64.3928 21.4795C64.0878 21.1433 63.8565 20.7471 63.7138 20.3163C63.5711 19.8854 63.5201 19.4295 63.5641 18.9777ZM68.6469 18.9777C68.6469 17.4892 67.9782 16.6188 66.8047 16.6188C65.6267 16.6188 64.964 17.4892 64.964 18.9777C64.964 20.4782 65.6267 21.3419 66.8047 21.3419C67.9782 21.3419 68.6469 20.4722 68.6469 18.9777Z" fill="white"/>
<path d="M78.6503 22.4141H77.2444L75.8252 17.3566H75.7179L74.3046 22.4141H72.9122L71.0193 15.5472H72.3939L73.624 20.7871H73.7253L75.1371 15.5472H76.4372L77.8491 20.7871H77.9563L79.1805 15.5472H80.5357L78.6503 22.4141Z" fill="white"/>
<path d="M82.1258 15.5473H83.4304V16.6382H83.5316C83.7034 16.2464 83.9932 15.9179 84.3605 15.6986C84.7278 15.4793 85.1544 15.3801 85.5808 15.4148C85.915 15.3896 86.2505 15.44 86.5625 15.5622C86.8745 15.6843 87.155 15.8751 87.3833 16.1204C87.6116 16.3657 87.7817 16.6592 87.8811 16.9791C87.9806 17.2991 88.0067 17.6374 87.9577 17.9688V22.4142H86.6025V18.3091C86.6025 17.2056 86.1229 16.6568 85.1207 16.6568C84.8938 16.6462 84.6673 16.6848 84.4568 16.77C84.2463 16.8551 84.0566 16.9848 83.9009 17.1501C83.7452 17.3154 83.627 17.5124 83.5545 17.7276C83.482 17.9428 83.457 18.1712 83.481 18.397V22.4143H82.1258L82.1258 15.5473Z" fill="white"/>
<path d="M90.117 12.8665H91.4723V22.4141H90.117V12.8665Z" fill="white"/>
<path d="M93.358 18.9779C93.3148 18.5266 93.3665 18.0712 93.5096 17.641C93.6528 17.2109 93.8842 16.8154 94.1892 16.4799C94.4941 16.1444 94.8658 15.8763 95.2804 15.6929C95.695 15.5095 96.1434 15.4148 96.5967 15.4148C97.0501 15.4148 97.4985 15.5095 97.9131 15.6929C98.3277 15.8763 98.6993 16.1444 99.0043 16.4799C99.3092 16.8154 99.5407 17.2109 99.6838 17.641C99.827 18.0712 99.8786 18.5266 99.8355 18.9779C99.8794 19.4296 99.8284 19.8856 99.6856 20.3164C99.5428 20.7473 99.3115 21.1435 99.0065 21.4796C98.7015 21.8157 98.3295 22.0843 97.9145 22.2681C97.4995 22.4519 97.0506 22.5469 96.5967 22.5469C96.1428 22.5469 95.694 22.4519 95.279 22.2681C94.864 22.0843 94.492 21.8157 94.187 21.4796C93.882 21.1435 93.6506 20.7473 93.5079 20.3164C93.3651 19.8856 93.314 19.4296 93.358 18.9779ZM98.4408 18.9779C98.4408 17.4894 97.7721 16.6189 96.5986 16.6189C95.4206 16.6189 94.7579 17.4894 94.7579 18.9779C94.7579 20.4783 95.4206 21.3421 96.5986 21.3421C97.7721 21.3421 98.4408 20.4723 98.4408 18.9779Z" fill="white"/>
<path d="M101.263 20.4723C101.263 19.2362 102.183 18.5236 103.817 18.4223L105.677 18.3151V17.7224C105.677 16.9971 105.198 16.5875 104.271 16.5875C103.515 16.5875 102.991 16.8653 102.84 17.3508H101.528C101.667 16.1713 102.776 15.4148 104.334 15.4148C106.055 15.4148 107.026 16.2718 107.026 17.7224V22.4143H105.722V21.4492H105.615C105.397 21.7954 105.091 22.0776 104.729 22.267C104.367 22.4564 103.96 22.5463 103.552 22.5274C103.264 22.5574 102.972 22.5266 102.697 22.4371C102.421 22.3476 102.167 22.2013 101.951 22.0077C101.736 21.8141 101.563 21.5774 101.445 21.3129C101.326 21.0485 101.264 20.7621 101.263 20.4723ZM105.677 19.8855V19.3114L104 19.4186C103.055 19.4819 102.626 19.8036 102.626 20.409C102.626 21.027 103.162 21.3867 103.899 21.3867C104.115 21.4085 104.333 21.3867 104.541 21.3225C104.748 21.2583 104.94 21.1531 105.106 21.013C105.272 20.873 105.408 20.701 105.506 20.5073C105.604 20.3136 105.662 20.1021 105.677 19.8855Z" fill="white"/>
<path d="M108.807 18.9777C108.807 16.8079 109.922 15.4333 111.657 15.4333C112.086 15.4135 112.512 15.5163 112.885 15.7296C113.258 15.943 113.563 16.258 113.763 16.638H113.864V12.8665H115.22V22.4141H113.921V21.3292H113.814C113.598 21.7066 113.283 22.0178 112.903 22.229C112.522 22.4402 112.092 22.5433 111.657 22.5273C109.91 22.5274 108.807 21.1528 108.807 18.9777ZM110.207 18.9777C110.207 20.4342 110.893 21.3106 112.042 21.3106C113.184 21.3106 113.89 20.4216 113.89 18.9837C113.89 17.5525 113.176 16.6507 112.042 16.6507C110.901 16.6507 110.207 17.5331 110.207 18.9777Z" fill="white"/>
<path d="M120.826 18.9777C120.783 18.5265 120.835 18.0711 120.978 17.641C121.121 17.2108 121.352 16.8153 121.657 16.4799C121.962 16.1444 122.334 15.8763 122.748 15.6929C123.163 15.5095 123.611 15.4148 124.065 15.4148C124.518 15.4148 124.966 15.5095 125.381 15.6929C125.795 15.8763 126.167 16.1444 126.472 16.4799C126.777 16.8153 127.008 17.2108 127.151 17.641C127.295 18.0711 127.346 18.5265 127.303 18.9777C127.347 19.4295 127.296 19.8854 127.153 20.3163C127.011 20.7471 126.779 21.1433 126.474 21.4795C126.169 21.8156 125.797 22.0842 125.382 22.268C124.967 22.4518 124.519 22.5468 124.065 22.5468C123.611 22.5468 123.162 22.4518 122.747 22.268C122.332 22.0842 121.96 21.8156 121.655 21.4795C121.35 21.1433 121.119 20.7471 120.976 20.3163C120.833 19.8854 120.782 19.4295 120.826 18.9777ZM125.909 18.9777C125.909 17.4892 125.24 16.6188 124.067 16.6188C122.889 16.6188 122.226 17.4892 122.226 18.9777C122.226 20.4782 122.889 21.3419 124.067 21.3419C125.24 21.3419 125.909 20.4722 125.909 18.9777Z" fill="white"/>
<path d="M129.121 15.5473H130.425V16.6382H130.526C130.698 16.2464 130.988 15.9179 131.355 15.6986C131.723 15.4793 132.149 15.3801 132.576 15.4148C132.91 15.3896 133.245 15.44 133.557 15.5622C133.869 15.6843 134.15 15.8751 134.378 16.1204C134.606 16.3657 134.777 16.6592 134.876 16.9791C134.975 17.2991 135.002 17.6374 134.953 17.9688V22.4142H133.597V18.3091C133.597 17.2056 133.118 16.6568 132.115 16.6568C131.889 16.6462 131.662 16.6848 131.452 16.77C131.241 16.8551 131.051 16.9848 130.896 17.1501C130.74 17.3154 130.622 17.5124 130.549 17.7276C130.477 17.9428 130.452 18.1712 130.476 18.397V22.4143H129.121V15.5473Z" fill="white"/>
<path d="M142.612 13.8377V15.5787H144.1V16.7202H142.612V20.2512C142.612 20.9705 142.909 21.2855 143.583 21.2855C143.756 21.285 143.929 21.2745 144.1 21.2542V22.3831C143.857 22.4266 143.61 22.4498 143.363 22.4523C141.856 22.4523 141.256 21.9222 141.256 20.5982V16.7201H140.166V15.5786H141.256V13.8377H142.612Z" fill="white"/>
<path d="M145.95 12.8665H147.293V16.6507H147.4C147.58 16.2553 147.878 15.925 148.253 15.7048C148.627 15.4847 149.061 15.3854 149.494 15.4206C149.826 15.4025 150.159 15.458 150.467 15.5831C150.776 15.7082 151.053 15.8999 151.279 16.1444C151.504 16.3889 151.674 16.6803 151.774 16.9977C151.874 17.3151 151.903 17.6507 151.859 17.9806V22.4142H150.502V18.315C150.502 17.2181 149.991 16.6626 149.034 16.6626C148.801 16.6435 148.567 16.6755 148.347 16.7564C148.128 16.8373 147.929 16.9652 147.765 17.131C147.6 17.2968 147.473 17.4966 147.394 17.7165C147.315 17.9363 147.284 18.1708 147.305 18.4036V22.4141H145.95L145.95 12.8665Z" fill="white"/>
<path d="M159.761 20.5602C159.577 21.1878 159.178 21.7307 158.634 22.0939C158.09 22.4571 157.436 22.6174 156.786 22.5469C156.333 22.5589 155.884 22.4722 155.468 22.293C155.052 22.1137 154.681 21.8462 154.379 21.509C154.077 21.1718 153.852 20.7729 153.72 20.3401C153.588 19.9072 153.552 19.4508 153.613 19.0025C153.553 18.5528 153.59 18.0954 153.722 17.6613C153.854 17.2271 154.078 16.8264 154.378 16.4862C154.678 16.146 155.048 15.8743 155.462 15.6895C155.877 15.5047 156.326 15.411 156.78 15.4149C158.69 15.4149 159.843 16.7203 159.843 18.8766V19.3495H154.994V19.4254C154.973 19.6774 155.004 19.9311 155.087 20.1701C155.17 20.4092 155.301 20.6283 155.473 20.8136C155.645 20.9988 155.854 21.146 156.087 21.2457C156.319 21.3454 156.57 21.3955 156.823 21.3927C157.147 21.4316 157.475 21.3732 157.766 21.225C158.057 21.0768 158.297 20.8454 158.457 20.5602L159.761 20.5602ZM154.994 18.3472H158.462C158.48 18.1167 158.448 17.8852 158.371 17.6676C158.293 17.45 158.17 17.251 158.011 17.0834C157.852 16.9159 157.66 16.7835 157.446 16.6948C157.233 16.6061 157.003 16.563 156.772 16.5683C156.538 16.5654 156.305 16.6094 156.088 16.6977C155.871 16.7861 155.674 16.917 155.508 17.0828C155.342 17.2486 155.211 17.4459 155.123 17.663C155.035 17.8802 154.991 18.1128 154.994 18.3472Z" fill="white"/>
</g>
<defs>
<clipPath id="clip0_103_39535">
<rect width="182.488" height="61" fill="white"/>
</clipPath>
</defs>
</svg>
