<svg width="77" height="77" viewBox="0 0 77 77" fill="none" xmlns="http://www.w3.org/2000/svg">
<rect x="2" y="2" width="73" height="73" rx="36.5" fill="white"/>
<rect x="2" y="2" width="73" height="73" rx="36.5" stroke="white" stroke-width="4"/>
<path d="M58.9067 27.6793C58.9067 32.4428 55.0452 36.3043 50.2817 36.3043C45.5183 36.3043 41.6567 32.4428 41.6567 27.6793C41.6567 22.9159 45.5183 19.0543 50.2817 19.0543C55.0452 19.0543 58.9067 22.9159 58.9067 27.6793Z" fill="black"/>
<path d="M28.4432 22.5043C30.825 22.5043 32.7557 20.5735 32.7557 18.1918C32.7557 15.8101 30.825 13.8793 28.4432 13.8793C26.0615 13.8793 24.1307 15.8101 24.1307 18.1918C24.1307 20.5735 26.0615 22.5043 28.4432 22.5043Z" fill="black"/>
<path fill-rule="evenodd" clip-rule="evenodd" d="M65.7213 59.698C64.8329 60.8373 63.8745 61.9194 62.8525 62.9377C61.6365 64.1496 60.3305 65.2713 58.9454 66.2919C53.2236 70.5083 46.1528 73 38.5 73C30.8472 73 23.7764 70.5083 18.0546 66.2919C16.6695 65.2713 15.3635 64.1496 14.1475 62.9377C13.1255 61.9194 12.1671 60.8373 11.2786 59.698C10.9171 59.2344 10.5671 58.7613 10.2292 58.2791C8.94341 56.4448 7.83165 54.4795 6.91785 52.4074C6.91289 52.3962 6.90793 52.3849 6.90298 52.3736C5.03623 48.1283 4 43.4351 4 38.5C4 19.4462 19.4462 4 38.5 4C57.5538 4 73 19.4462 73 38.5C73 46.153 70.5082 53.2239 66.2917 58.9458C66.1049 59.1992 65.9148 59.45 65.7213 59.698ZM61.3192 59.698C60.2348 60.8648 59.0621 61.9482 57.8116 62.9377L19.1884 62.9377C17.9379 61.9482 16.7651 60.8647 15.6808 59.698L61.3192 59.698ZM50.2425 41.0105L50.3599 41.1515L50.4791 41.0105V41.2946L63.0178 56.3438H64.0309C67.5695 51.2902 69.6458 45.1376 69.6458 38.5C69.6458 21.2986 55.7014 7.35417 38.5 7.35417C21.2986 7.35417 7.35417 21.2986 7.35417 38.5C7.35417 42.3294 8.04525 45.9973 9.3095 49.3859L21.3918 34.8872L28.383 26.4495L28.403 26.4737L28.4433 26.4254V26.5223L45.3275 46.9074L50.2425 41.0105ZM50.4791 46.5346V56.3438H58.652L50.4791 46.5346ZM37.4623 56.3438L40.7433 52.4074H10.624C11.3103 53.7804 12.0951 55.0956 12.9691 56.3438H37.4623ZM28.4433 31.7807V49.0532H42.7495L28.4433 31.7807ZM38.5 69.6458C33.4352 69.6458 28.6528 68.4369 24.4256 66.2919L52.5744 66.2919C48.3472 68.4369 43.5648 69.6458 38.5 69.6458Z" fill="black"/>
</svg>
