<svg width="140" height="36" viewBox="0 0 140 36" fill="none" xmlns="http://www.w3.org/2000/svg">
<path d="M20.7162 16.6091C20.7313 15.4406 21.0417 14.2949 21.6185 13.2785C22.1954 12.2622 23.0199 11.4083 24.0154 10.7963C23.383 9.89303 22.5487 9.14971 21.5787 8.62534C20.6088 8.10097 19.5299 7.80998 18.4278 7.7755C16.0769 7.52874 13.7977 9.18227 12.5997 9.18227C11.3786 9.18227 9.53406 7.8 7.54784 7.84087C6.26309 7.88238 5.01101 8.25597 3.91358 8.92525C2.81615 9.59454 1.9108 10.5367 1.28575 11.6599C-1.42185 16.3477 0.597775 23.2371 3.19143 27.0264C4.48909 28.8819 6.00568 30.9545 7.99011 30.881C9.932 30.8005 10.6573 29.6427 13.0013 29.6427C15.3235 29.6427 16.004 30.881 18.0287 30.8343C20.1124 30.8005 21.4253 28.9706 22.6774 27.0975C23.6098 25.7754 24.3272 24.3142 24.8032 22.768C23.5926 22.256 22.5595 21.3989 21.8327 20.3037C21.106 19.2085 20.7177 17.9236 20.7162 16.6091Z" fill="white"/>
<path d="M16.892 5.28341C18.0281 3.91952 18.5879 2.16647 18.4523 0.396545C16.7165 0.578854 15.1132 1.40844 13.9617 2.72C13.3987 3.36073 12.9675 4.10614 12.6928 4.91362C12.418 5.7211 12.3051 6.57481 12.3605 7.42595C13.2287 7.43489 14.0876 7.24671 14.8725 6.87558C15.6575 6.50446 16.3479 5.96007 16.892 5.28341Z" fill="white"/>
<path d="M45.263 26.1836H38.6363L37.0449 30.8826H34.238L40.5148 13.4974H43.431L49.7078 30.8826H46.8531L45.263 26.1836ZM39.3226 24.0152H44.5754L41.9859 16.3891H41.9135L39.3226 24.0152Z" fill="white"/>
<path d="M63.2634 24.5457C63.2634 28.4846 61.1552 31.0153 57.9738 31.0153C57.1679 31.0574 56.3664 30.8718 55.661 30.4796C54.9557 30.0874 54.3751 29.5045 53.9857 28.7977H53.9255V35.0758H51.3237V18.2075H53.8421V20.3157H53.89C54.2973 19.6122 54.8877 19.0323 55.5984 18.6378C56.3091 18.2432 57.1135 18.0486 57.9259 18.0748C61.1429 18.0748 63.2634 20.6178 63.2634 24.5457ZM60.5892 24.5457C60.5892 21.9795 59.263 20.2924 57.2396 20.2924C55.2517 20.2924 53.9146 22.0151 53.9146 24.5457C53.9146 27.0997 55.2517 28.81 57.2396 28.81C59.263 28.81 60.5892 27.1352 60.5892 24.5457Z" fill="white"/>
<path d="M77.2142 24.5459C77.2142 28.4847 75.106 31.0154 71.9246 31.0154C71.1187 31.0575 70.3172 30.8719 69.6119 30.4797C68.9065 30.0875 68.3259 29.5046 67.9365 28.7978H67.8763V35.0759H65.2745V18.2076H67.7929V20.3158H67.8407C68.2481 19.6123 68.8385 19.0325 69.5492 18.6379C70.2599 18.2433 71.0642 18.0487 71.8767 18.075C75.0937 18.075 77.2142 20.6179 77.2142 24.5459ZM74.54 24.5459C74.54 21.9797 73.2138 20.2925 71.1904 20.2925C69.2025 20.2925 67.8654 22.0152 67.8654 24.5459C67.8654 27.0998 69.2025 28.8101 71.1904 28.8101C73.2138 28.8101 74.54 27.1353 74.54 24.5459Z" fill="white"/>
<path d="M86.4346 26.0387C86.6273 27.7627 88.3022 28.8947 90.5908 28.8947C92.7838 28.8947 94.3615 27.7627 94.3615 26.2082C94.3615 24.8588 93.4099 24.0508 91.1568 23.497L88.9037 22.9543C85.7113 22.1832 84.2293 20.6902 84.2293 18.2675C84.2293 15.2679 86.8434 13.2076 90.5553 13.2076C94.2289 13.2076 96.7473 15.2679 96.832 18.2675H94.2056C94.0484 16.5326 92.6142 15.4853 90.5183 15.4853C88.4224 15.4853 86.9882 16.5449 86.9882 18.0871C86.9882 19.3162 87.9043 20.0394 90.1451 20.5931L92.0605 21.0634C95.6275 21.907 97.1095 23.3398 97.1095 25.8827C97.1095 29.1353 94.5187 31.1724 90.398 31.1724C86.5425 31.1724 83.9394 29.1831 83.7712 26.0386L86.4346 26.0387Z" fill="white"/>
<path d="M102.725 15.2079V18.2075H105.135V20.2679H102.725V27.2556C102.725 28.3411 103.207 28.847 104.267 28.847C104.553 28.842 104.839 28.8219 105.123 28.7868V30.8348C104.646 30.9239 104.162 30.9642 103.678 30.9552C101.111 30.9552 100.111 29.9913 100.111 27.5331V20.2679H98.2676V18.2075H100.111V15.2079H102.725Z" fill="white"/>
<path d="M106.531 24.5458C106.531 20.5577 108.88 18.0516 112.542 18.0516C116.217 18.0516 118.555 20.5576 118.555 24.5458C118.555 28.5448 116.23 31.0399 112.542 31.0399C108.856 31.0399 106.531 28.5448 106.531 24.5458ZM115.904 24.5458C115.904 21.81 114.651 20.1954 112.542 20.1954C110.434 20.1954 109.182 21.8223 109.182 24.5458C109.182 27.2924 110.434 28.8948 112.542 28.8948C114.651 28.8948 115.904 27.2924 115.904 24.5458Z" fill="white"/>
<path d="M120.7 18.2075H123.182V20.3649H123.242C123.41 19.6911 123.805 19.0957 124.36 18.6786C124.915 18.2616 125.597 18.0484 126.291 18.0749C126.591 18.0738 126.89 18.1064 127.182 18.172V20.6056C126.804 20.4899 126.409 20.4368 126.013 20.4483C125.635 20.433 125.258 20.4996 124.909 20.6437C124.559 20.7877 124.244 21.0057 123.987 21.2828C123.729 21.5598 123.535 21.8893 123.417 22.2487C123.298 22.608 123.259 22.9887 123.302 23.3645V30.8827H120.7L120.7 18.2075Z" fill="white"/>
<path d="M139.178 27.1598C138.828 29.4608 136.587 31.0399 133.72 31.0399C130.033 31.0399 127.744 28.5694 127.744 24.6059C127.744 20.6301 130.045 18.0516 133.611 18.0516C137.118 18.0516 139.323 20.4606 139.323 24.3038V25.1952H130.371V25.3524C130.329 25.8189 130.388 26.2888 130.542 26.731C130.696 27.1732 130.943 27.5775 131.265 27.917C131.588 28.2566 131.979 28.5237 132.412 28.7005C132.846 28.8773 133.312 28.9599 133.78 28.9426C134.395 29.0002 135.012 28.8578 135.54 28.5366C136.067 28.2154 136.477 27.7325 136.707 27.1598L139.178 27.1598ZM130.383 23.3768H136.72C136.743 22.9574 136.679 22.5376 136.533 22.144C136.386 21.7503 136.16 21.3911 135.868 21.089C135.576 20.787 135.225 20.5485 134.837 20.3886C134.448 20.2287 134.031 20.1508 133.611 20.1598C133.187 20.1573 132.767 20.2387 132.375 20.3993C131.983 20.56 131.627 20.7967 131.326 21.0958C131.026 21.3948 130.788 21.7504 130.627 22.1419C130.465 22.5334 130.382 22.9531 130.383 23.3768Z" fill="white"/>
<path d="M38.9964 0.411609C39.5418 0.372466 40.0892 0.45487 40.5989 0.652876C41.1087 0.850883 41.5682 1.15956 41.9442 1.55663C42.3202 1.95371 42.6034 2.42928 42.7734 2.94906C42.9433 3.46884 42.9958 4.01986 42.927 4.56239C42.927 7.23113 41.4847 8.76518 38.9964 8.76518H35.979V0.411609H38.9964ZM37.2765 7.58381H38.8515C39.2412 7.60711 39.6313 7.5432 39.9932 7.39674C40.3552 7.25028 40.6799 7.02495 40.9438 6.73716C41.2077 6.44937 41.4041 6.10636 41.5187 5.73309C41.6333 5.35983 41.6633 4.9657 41.6063 4.57941C41.6591 4.19464 41.6262 3.80296 41.5098 3.43243C41.3934 3.0619 41.1965 2.7217 40.9333 2.4362C40.67 2.15069 40.3468 1.92696 39.9869 1.78103C39.627 1.6351 39.2392 1.57058 38.8515 1.5921H37.2765V7.58381Z" fill="white"/>
<path d="M44.3927 5.61029C44.3531 5.196 44.4005 4.778 44.5319 4.38311C44.6632 3.98821 44.8757 3.62513 45.1556 3.31716C45.4355 3.00918 45.7767 2.76311 46.1573 2.59472C46.5379 2.42634 46.9495 2.33936 47.3657 2.33936C47.7819 2.33936 48.1934 2.42634 48.574 2.59472C48.9546 2.76311 49.2958 3.00918 49.5757 3.31716C49.8557 3.62513 50.0681 3.98821 50.1995 4.38311C50.3309 4.778 50.3783 5.196 50.3386 5.61029C50.379 6.025 50.3322 6.44357 50.2012 6.83911C50.0701 7.23464 49.8578 7.59839 49.5778 7.90697C49.2978 8.21555 48.9564 8.46213 48.5754 8.63088C48.1944 8.79963 47.7823 8.88681 47.3657 8.88681C46.949 8.88681 46.5369 8.79963 46.156 8.63088C45.775 8.46213 45.4335 8.21555 45.1535 7.90697C44.8736 7.59839 44.6612 7.23464 44.5302 6.83911C44.3992 6.44357 44.3523 6.025 44.3927 5.61029ZM49.0589 5.61029C49.0589 4.24379 48.4451 3.44467 47.3677 3.44467C46.2863 3.44467 45.6779 4.24379 45.6779 5.6103C45.6779 6.98775 46.2863 7.78071 47.3677 7.78071C48.4451 7.78069 49.0589 6.98226 49.0589 5.61029Z" fill="white"/>
<path d="M58.2423 8.76504H56.9517L55.6487 4.12206H55.5503L54.2528 8.76504H52.9745L51.2368 2.46094H52.4987L53.628 7.27134H53.721L55.0171 2.46094H56.2107L57.5067 7.27134H57.6052L58.729 2.46094H59.9731L58.2423 8.76504Z" fill="white"/>
<path d="M61.4347 2.46093H62.6323V3.46239H62.7253C62.883 3.1027 63.149 2.80118 63.4863 2.59986C63.8235 2.39853 64.2151 2.30742 64.6066 2.33924C64.9133 2.31618 65.2213 2.36243 65.5077 2.47457C65.7942 2.5867 66.0517 2.76185 66.2613 2.98703C66.4708 3.21221 66.627 3.48165 66.7183 3.7754C66.8096 4.06915 66.8336 4.37967 66.7886 4.68396V8.76496H65.5445V4.99639C65.5445 3.98331 65.1042 3.47949 64.1841 3.47949C63.9759 3.46979 63.768 3.50523 63.5747 3.5834C63.3814 3.66156 63.2073 3.78059 63.0643 3.93233C62.9214 4.08407 62.8129 4.26493 62.7463 4.46251C62.6798 4.66009 62.6568 4.86973 62.6788 5.07704V8.76504H61.4347L61.4347 2.46093Z" fill="white"/>
<path d="M68.771 0H70.0151V8.76503H68.771V0Z" fill="white"/>
<path d="M71.7446 5.61028C71.705 5.19597 71.7524 4.77795 71.8838 4.38304C72.0153 3.98812 72.2277 3.62503 72.5077 3.31705C72.7876 3.00907 73.1289 2.76299 73.5095 2.59461C73.8901 2.42622 74.3017 2.33923 74.7179 2.33923C75.1341 2.33923 75.5457 2.42622 75.9263 2.59461C76.307 2.76299 76.6482 3.00907 76.9281 3.31705C77.2081 3.62503 77.4206 3.98812 77.552 4.38304C77.6834 4.77795 77.7308 5.19597 77.6912 5.61028C77.7315 6.02501 77.6847 6.44359 77.5536 6.83912C77.4225 7.23465 77.2102 7.59839 76.9301 7.90696C76.6501 8.21553 76.3086 8.46211 75.9277 8.63085C75.5467 8.79959 75.1346 8.88676 74.7179 8.88676C74.3012 8.88676 73.8892 8.79959 73.5082 8.63085C73.1272 8.46211 72.7857 8.21553 72.5057 7.90696C72.2257 7.59839 72.0133 7.23465 71.8822 6.83912C71.7512 6.44359 71.7043 6.02501 71.7446 5.61028ZM76.4108 5.61028C76.4108 4.24378 75.7969 3.44466 74.7196 3.44466C73.6382 3.44466 73.0298 4.24378 73.0298 5.6103C73.0298 6.98774 73.6382 7.7807 74.7196 7.7807C75.797 7.78069 76.4108 6.98225 76.4108 5.61028Z" fill="white"/>
<path d="M79.001 6.98219C79.001 5.84742 79.8459 5.19323 81.3457 5.10026L83.0533 5.00182V4.45769C83.0533 3.79186 82.6131 3.41589 81.7627 3.41589C81.0682 3.41589 80.5869 3.67087 80.4488 4.11658H79.2443C79.3715 3.03376 80.39 2.33923 81.8201 2.33923C83.4006 2.33923 84.292 3.12603 84.292 4.45769V8.76501H83.0943V7.87908H82.9959C82.7961 8.19687 82.5155 8.45593 82.1829 8.62983C81.8502 8.80372 81.4773 8.88621 81.1023 8.86888C80.8377 8.8964 80.5702 8.86817 80.3172 8.78599C80.0641 8.70381 79.8311 8.56952 79.6331 8.39176C79.4351 8.214 79.2765 7.99673 79.1677 7.75395C79.0588 7.51117 79.002 7.24827 79.001 6.98219ZM83.0533 6.44352V5.91647L81.5139 6.01491C80.6457 6.07301 80.2519 6.36832 80.2519 6.92408C80.2519 7.49146 80.7441 7.82163 81.4209 7.82163C81.6192 7.84171 81.8196 7.82169 82.01 7.76276C82.2004 7.70383 82.377 7.6072 82.5293 7.47863C82.6816 7.35005 82.8065 7.19215 82.8965 7.01432C82.9865 6.8365 83.0399 6.64238 83.0533 6.44352Z" fill="white"/>
<path d="M85.9271 5.61028C85.9271 3.61829 86.9512 2.35637 88.5439 2.35637C88.9379 2.33821 89.3289 2.43258 89.6713 2.62843C90.0136 2.82428 90.2931 3.11353 90.4771 3.46237H90.5701V0H91.8142V8.76503H90.6221V7.76903H90.5236C90.3254 8.11552 90.0361 8.40117 89.6872 8.59504C89.3382 8.78892 88.9429 8.88363 88.5439 8.86893C86.9402 8.869 85.9271 7.60705 85.9271 5.61028ZM87.2123 5.61028C87.2123 6.94739 87.8426 7.75198 88.8967 7.75198C89.9453 7.75198 90.5934 6.93578 90.5934 5.61575C90.5934 4.30188 89.9385 3.47404 88.8967 3.47404C87.8494 3.47404 87.2123 4.2841 87.2123 5.61028Z" fill="white"/>
<path d="M96.9617 5.61029C96.9221 5.196 96.9695 4.778 97.1008 4.38311C97.2322 3.98821 97.4447 3.62513 97.7246 3.31716C98.0045 3.00918 98.3457 2.76311 98.7263 2.59472C99.1069 2.42634 99.5185 2.33936 99.9346 2.33936C100.351 2.33936 100.762 2.42634 101.143 2.59472C101.524 2.76311 101.865 3.00918 102.145 3.31716C102.425 3.62513 102.637 3.98821 102.768 4.38311C102.9 4.778 102.947 5.196 102.908 5.61029C102.948 6.025 102.901 6.44357 102.77 6.83911C102.639 7.23464 102.427 7.59839 102.147 7.90697C101.867 8.21555 101.525 8.46213 101.144 8.63088C100.763 8.79963 100.351 8.88681 99.9346 8.88681C99.518 8.88681 99.1059 8.79963 98.7249 8.63088C98.344 8.46213 98.0025 8.21555 97.7225 7.90697C97.4425 7.59839 97.2302 7.23464 97.0992 6.83911C96.9681 6.44357 96.9213 6.025 96.9617 5.61029ZM101.628 5.61029C101.628 4.24379 101.014 3.44467 99.9367 3.44467C98.8553 3.44467 98.2469 4.24379 98.2469 5.6103C98.2469 6.98775 98.8553 7.78071 99.9367 7.78071C101.014 7.78069 101.628 6.98226 101.628 5.61029Z" fill="white"/>
<path d="M104.577 2.46093H105.775V3.46239H105.868C106.025 3.1027 106.291 2.80118 106.628 2.59986C106.966 2.39853 107.357 2.30742 107.749 2.33924C108.056 2.31618 108.364 2.36243 108.65 2.47457C108.936 2.5867 109.194 2.76185 109.403 2.98703C109.613 3.21221 109.769 3.48165 109.861 3.7754C109.952 4.06915 109.976 4.37967 109.931 4.68396V8.76496H108.687V4.99639C108.687 3.98331 108.246 3.47949 107.326 3.47949C107.118 3.46979 106.91 3.50523 106.717 3.5834C106.524 3.66156 106.35 3.78059 106.207 3.93233C106.064 4.08407 105.955 4.26493 105.889 4.46251C105.822 4.66009 105.799 4.86973 105.821 5.07704V8.76504H104.577V2.46093Z" fill="white"/>
<path d="M116.961 0.891388V2.48963H118.327V3.53758H116.961V6.77919C116.961 7.43954 117.233 7.72869 117.852 7.72869C118.011 7.72819 118.169 7.7186 118.327 7.69998V8.7363C118.103 8.77627 117.877 8.79754 117.65 8.79988C116.266 8.79988 115.715 8.31315 115.715 7.09773V3.53753H114.715V2.48957H115.715V0.891388H116.961Z" fill="white"/>
<path d="M120.026 0H121.259V3.47403H121.358C121.523 3.11098 121.796 2.80775 122.14 2.60567C122.484 2.40358 122.882 2.31246 123.28 2.34473C123.585 2.32813 123.89 2.37907 124.173 2.49393C124.457 2.60879 124.711 2.78473 124.918 3.00921C125.126 3.23368 125.281 3.50115 125.373 3.79254C125.465 4.08393 125.492 4.39205 125.451 4.69493V8.76505H124.206V5.00185C124.206 3.99491 123.737 3.48495 122.858 3.48495C122.644 3.46741 122.429 3.49681 122.227 3.57108C122.026 3.64536 121.843 3.76272 121.692 3.91495C121.541 4.06718 121.425 4.25061 121.352 4.45241C121.279 4.6542 121.251 4.86948 121.27 5.08319V8.76502H120.026L120.026 0Z" fill="white"/>
<path d="M132.705 7.06291C132.536 7.63906 132.17 8.13744 131.671 8.47085C131.171 8.80426 130.571 8.95147 129.974 8.88673C129.558 8.89769 129.146 8.81814 128.764 8.6536C128.383 8.48906 128.042 8.24347 127.765 7.93388C127.487 7.62429 127.281 7.25811 127.16 6.86076C127.038 6.46341 127.005 6.04441 127.062 5.63283C127.006 5.21999 127.04 4.80009 127.161 4.40155C127.283 4.00301 127.488 3.63513 127.763 3.32283C128.039 3.01053 128.379 2.76109 128.759 2.5914C129.139 2.42171 129.552 2.33573 129.968 2.33928C131.722 2.33928 132.781 3.53768 132.781 5.51728V5.9514H128.329V6.02112C128.31 6.25247 128.339 6.48533 128.414 6.70478C128.49 6.92423 128.611 7.12542 128.769 7.29546C128.927 7.4655 129.119 7.60063 129.332 7.69218C129.546 7.78374 129.776 7.8297 130.008 7.82712C130.306 7.86285 130.607 7.80926 130.874 7.67317C131.141 7.53708 131.362 7.32464 131.508 7.06286L132.705 7.06291ZM128.329 5.03127H131.513C131.529 4.81969 131.5 4.60717 131.429 4.40736C131.357 4.20756 131.245 4.02489 131.099 3.87109C130.953 3.71729 130.776 3.59576 130.58 3.51431C130.384 3.43287 130.174 3.3933 129.961 3.39817C129.746 3.39546 129.533 3.43586 129.333 3.51699C129.134 3.59811 128.953 3.71831 128.801 3.87051C128.649 4.02271 128.529 4.20382 128.448 4.40318C128.367 4.60253 128.326 4.81609 128.329 5.03127Z" fill="white"/>
</svg>
