<svg width="206" height="61" viewBox="0 0 206 61" fill="none" xmlns="http://www.w3.org/2000/svg">
<g clip-path="url(#clip0_72_46644)">
<path d="M198.141 0H7.53184C3.32007 0 -0.0942383 3.41431 -0.0942383 7.62608V53.3739C-0.0942383 57.5857 3.32007 61 7.53184 61H198.141C202.352 61 205.767 57.5857 205.767 53.3739V7.62608C205.767 3.41431 202.352 0 198.141 0Z" fill="black"/>
<path d="M198.149 1.22224C201.678 1.22224 204.553 4.09708 204.553 7.62608V53.3739C204.553 56.9029 201.678 59.7778 198.149 59.7778H7.53184C4.00284 59.7778 1.128 56.9029 1.128 53.3739V7.62608C1.128 4.09708 4.00284 1.22224 7.53184 1.22224H198.149ZM198.149 0H7.53184C3.34008 0 -0.0942383 3.43432 -0.0942383 7.62608V53.3739C-0.0942383 57.5657 3.34008 61 7.53184 61H198.149C202.341 61 205.775 57.5657 205.775 53.3739V7.62608C205.775 3.43432 202.341 0 198.149 0Z" fill="#A6A6A6"/>
<path d="M72.215 15.6221C72.215 16.896 71.8362 17.9202 71.0788 18.6777C70.2181 19.5815 69.0991 20.029 67.7219 20.029C66.3448 20.029 65.2775 19.5728 64.3565 18.6605C63.4355 17.7481 62.9707 16.6119 62.9707 15.252C62.9707 13.892 63.4355 12.7645 64.3565 11.8435C65.2775 10.9311 66.405 10.4663 67.7219 10.4663C68.3761 10.4663 69.0044 10.5954 69.5983 10.845C70.1922 11.1032 70.6742 11.4389 71.0271 11.8693L70.2267 12.6784C69.6241 11.9554 68.7892 11.5939 67.7219 11.5939C66.7579 11.5939 65.923 11.9296 65.2258 12.6095C64.5286 13.2895 64.1757 14.1675 64.1757 15.2434C64.1757 16.3193 64.5286 17.2058 65.2258 17.8772C65.9316 18.5572 66.7579 18.8929 67.7219 18.8929C68.7462 18.8929 69.5983 18.5486 70.2783 17.8686C70.7173 17.421 70.9755 16.8099 71.0444 16.018H67.7219V14.9163H72.1547C72.1977 15.1573 72.215 15.3811 72.215 15.6049V15.6221Z" fill="white" stroke="white" stroke-width="0.172146" stroke-miterlimit="10"/>
<path d="M79.2465 11.8006H75.0806V14.7013H78.842V15.803H75.0806V18.7037H79.2465V19.8312H73.9014V10.6816H79.2465V11.8092V11.8006Z" fill="white" stroke="white" stroke-width="0.172146" stroke-miterlimit="10"/>
<path d="M84.2048 19.8227H83.0256V11.8007H80.4692V10.6731H86.7526V11.8007H84.1962V19.8227H84.2048Z" fill="white" stroke="white" stroke-width="0.172146" stroke-miterlimit="10"/>
<path d="M91.3057 19.8227V10.6731H92.4763V19.8227H91.3057Z" fill="white" stroke="white" stroke-width="0.172146" stroke-miterlimit="10"/>
<path d="M97.7004 19.8227H96.5212V11.8007H93.9648V10.6731H100.248V11.8007H97.6918V19.8227H97.7004Z" fill="white" stroke="white" stroke-width="0.172146" stroke-miterlimit="10"/>
<path d="M112.152 18.6437C111.248 19.5733 110.138 20.0295 108.795 20.0295C107.452 20.0295 106.342 19.5647 105.438 18.6437C104.534 17.7227 104.087 16.5865 104.087 15.2524C104.087 13.9183 104.534 12.7821 105.438 11.8611C106.333 10.9315 107.452 10.4753 108.795 10.4753C110.138 10.4753 111.24 10.9401 112.143 11.8697C113.047 12.7993 113.495 13.9269 113.495 15.2524C113.495 16.5779 113.047 17.7227 112.143 18.6437H112.152ZM106.316 17.8776C106.996 18.5662 107.822 18.9019 108.804 18.9019C109.785 18.9019 110.611 18.5576 111.291 17.8776C111.971 17.189 112.307 16.3197 112.307 15.2524C112.307 14.1851 111.963 13.3071 111.291 12.6272C110.62 11.9386 109.785 11.6029 108.804 11.6029C107.822 11.6029 106.996 11.9472 106.316 12.6272C105.645 13.3158 105.301 14.1851 105.301 15.2524C105.301 16.3197 105.645 17.1977 106.316 17.8776Z" fill="white" stroke="white" stroke-width="0.172146" stroke-miterlimit="10"/>
<path d="M115.156 19.8227V10.6731H116.584L121.034 17.7913H121.086L121.034 16.0268V10.6731H122.214V19.8227H120.983L116.326 12.3601H116.275L116.326 14.1246V19.8227H115.147H115.156Z" fill="white" stroke="white" stroke-width="0.172146" stroke-miterlimit="10"/>
<path d="M103.811 33.1724C100.222 33.1724 97.3038 35.9009 97.3038 39.6537C97.3038 43.4065 100.23 46.135 103.811 46.135C107.392 46.135 110.318 43.3807 110.318 39.6537C110.318 35.9267 107.392 33.1724 103.811 33.1724ZM103.811 43.5872C101.848 43.5872 100.153 41.9691 100.153 39.6537C100.153 37.3383 101.848 35.7202 103.811 35.7202C105.773 35.7202 107.469 37.3125 107.469 39.6537C107.469 41.9949 105.773 43.5872 103.811 43.5872ZM89.6089 33.1724C86.0196 33.1724 83.1017 35.9009 83.1017 39.6537C83.1017 43.4065 86.0282 46.135 89.6089 46.135C93.1895 46.135 96.116 43.3807 96.116 39.6537C96.116 35.9267 93.1895 33.1724 89.6089 33.1724ZM89.6089 43.5872C87.6464 43.5872 85.9508 41.9691 85.9508 39.6537C85.9508 37.3383 87.6464 35.7202 89.6089 35.7202C91.5713 35.7202 93.267 37.3125 93.267 39.6537C93.267 41.9949 91.5713 43.5872 89.6089 43.5872ZM72.7127 35.1607V37.915H79.2973C79.0993 39.4643 78.5829 40.5919 77.7996 41.3838C76.8442 42.3392 75.3466 43.3979 72.7127 43.3979C68.6587 43.3979 65.4912 40.1271 65.4912 36.0731C65.4912 32.019 68.6587 28.7482 72.7127 28.7482C74.899 28.7482 76.4999 29.609 77.6705 30.7107L79.6158 28.7654C77.9718 27.1903 75.7855 25.9939 72.7127 25.9939C67.161 25.9939 62.4958 30.5127 62.4958 36.0644C62.4958 41.6162 67.161 46.135 72.7127 46.135C75.7081 46.135 77.9718 45.1538 79.7363 43.3118C81.5524 41.4957 82.1205 38.9393 82.1205 36.8735C82.1205 36.2366 82.0689 35.6427 81.9742 35.1521H72.7127V35.1607ZM141.804 37.2953C141.261 35.8493 139.617 33.1638 136.252 33.1638C132.886 33.1638 130.132 35.789 130.132 39.6451C130.132 43.2774 132.886 46.1264 136.57 46.1264C139.54 46.1264 141.261 44.3102 141.976 43.2516L139.764 41.7797C139.023 42.8642 138.016 43.57 136.57 43.57C135.124 43.57 134.091 42.9073 133.429 41.6076L142.105 38.0183L141.812 37.2781L141.804 37.2953ZM132.955 39.4557C132.878 36.951 134.901 35.6685 136.347 35.6685C137.474 35.6685 138.438 36.2366 138.757 37.0457L132.955 39.4557ZM125.906 45.7477H128.755V26.6825H125.906V45.7477ZM121.241 34.6184H121.146C120.509 33.861 119.278 33.1724 117.729 33.1724C114.484 33.1724 111.514 36.0214 111.514 39.6795C111.514 43.3376 114.484 46.1436 117.729 46.1436C119.278 46.1436 120.501 45.455 121.146 44.6718H121.241V45.6013C121.241 48.0803 119.915 49.4058 117.772 49.4058C116.025 49.4058 114.949 48.1491 114.501 47.099L112.022 48.1319C112.737 49.8534 114.63 51.9621 117.772 51.9621C121.112 51.9621 123.935 49.9997 123.935 45.2054V33.5597H121.232V34.6184H121.241ZM117.97 43.5872C116.007 43.5872 114.355 41.9432 114.355 39.6795C114.355 37.4158 115.999 35.7202 117.97 35.7202C119.941 35.7202 121.439 37.39 121.439 39.6795C121.439 41.9691 119.915 43.5872 117.97 43.5872ZM155.154 26.6825H148.337V45.7477H151.186V38.5261H155.162C158.312 38.5261 161.42 36.2452 161.42 32.6043C161.42 28.9634 158.321 26.6825 155.162 26.6825H155.154ZM155.222 35.8751H151.177V29.3421H155.222C157.348 29.3421 158.553 31.1066 158.553 32.6129C158.553 34.1192 157.348 35.8837 155.222 35.8837V35.8751ZM172.807 33.138C170.75 33.138 168.615 34.0417 167.729 36.0558L170.259 37.1145C170.802 36.0558 171.8 35.7202 172.859 35.7202C174.331 35.7202 175.828 36.6067 175.854 38.1732V38.3712C175.338 38.0786 174.236 37.631 172.885 37.631C170.165 37.631 167.393 39.1286 167.393 41.926C167.393 44.4738 169.622 46.1178 172.127 46.1178C174.038 46.1178 175.097 45.2571 175.759 44.2586H175.854V45.7305H178.6V38.4229C178.6 35.0402 176.069 33.1466 172.807 33.1466V33.138ZM172.471 43.5786C171.542 43.5786 170.242 43.1138 170.242 41.9605C170.242 40.4886 171.86 39.9205 173.255 39.9205C174.503 39.9205 175.097 40.1873 175.854 40.5575C175.63 42.322 174.115 43.57 172.471 43.57V43.5786ZM188.602 33.5511L185.339 41.8141H185.245L181.862 33.5511H178.798L183.876 45.1021L180.984 51.5318H183.954L191.778 33.5511H188.61H188.602ZM162.978 45.7477H165.827V26.6825H162.978V45.7477Z" fill="white"/>
<path d="M31.5019 29.6177L15.2686 46.8496C15.2686 46.8496 15.2686 46.8496 15.2686 46.8582C15.7678 48.726 17.472 50.1031 19.5034 50.1031C20.3124 50.1031 21.0785 49.8793 21.724 49.5006L21.7757 49.4662L40.049 38.9222L31.4933 29.6091L31.5019 29.6177Z" fill="#EA4335"/>
<path d="M47.9252 26.6829H47.908L40.0151 22.0952L31.1238 30.0053L40.041 38.9225L47.8908 34.3951C49.268 33.6548 50.1976 32.2002 50.1976 30.5304C50.1976 28.8606 49.2766 27.4231 47.9166 26.6829H47.9252Z" fill="#FBBC04"/>
<path d="M15.2606 14.1504C15.1659 14.5119 15.1143 14.8906 15.1143 15.2779V45.7306C15.1143 46.1179 15.1659 46.4967 15.2606 46.8582L32.0534 30.0653L15.2606 14.1504Z" fill="#4285F4"/>
<path d="M31.6224 30.4959L40.0232 22.0952L21.7671 11.5082C21.1043 11.1123 20.3297 10.8799 19.5034 10.8799C17.472 10.8799 15.7678 12.2571 15.2686 14.1334L31.6224 30.4873V30.4959Z" fill="#34A853"/>
</g>
<defs>
<clipPath id="clip0_72_46644">
<rect width="205.68" height="61" fill="white"/>
</clipPath>
</defs>
</svg>
