<svg width="163" height="41" viewBox="0 0 163 41" fill="none" xmlns="http://www.w3.org/2000/svg">
<path d="M52.2784 6.65639C52.2784 7.82586 51.9307 8.76617 51.2354 9.46153C50.4452 10.2912 49.4179 10.7021 48.1537 10.7021C46.8894 10.7021 45.9095 10.2833 45.0641 9.44572C44.2186 8.60813 43.7919 7.5651 43.7919 6.31661C43.7919 5.06813 44.2186 4.033 45.0641 3.1875C45.9095 2.34991 46.9447 1.92322 48.1537 1.92322C48.7542 1.92322 49.331 2.04175 49.8762 2.2709C50.4215 2.50795 50.864 2.81612 51.1879 3.21121L50.4531 3.95398C49.8999 3.29023 49.1335 2.95835 48.1537 2.95835C47.2687 2.95835 46.5022 3.26652 45.8621 3.89076C45.2221 4.51501 44.8981 5.32099 44.8981 6.30871C44.8981 7.29644 45.2221 8.11032 45.8621 8.72666C46.5101 9.3509 47.2687 9.65907 48.1537 9.65907C49.094 9.65907 49.8762 9.343 50.5005 8.71876C50.9035 8.30787 51.1405 7.74684 51.2037 7.01987H48.1537V6.00844H52.2231C52.2626 6.22969 52.2784 6.43514 52.2784 6.64059V6.65639Z" fill="white" stroke="white" stroke-width="0.158036" stroke-miterlimit="10"/>
<path d="M58.7342 3.14802H54.9097V5.81093H58.3628V6.82236H54.9097V9.48526H58.7342V10.5204H53.8271V2.12079H58.7342V3.15592V3.14802Z" fill="white" stroke="white" stroke-width="0.158036" stroke-miterlimit="10"/>
<path d="M63.2856 10.5125H62.203V3.14802H59.8562V2.11288H65.6245V3.14802H63.2777V10.5125H63.2856Z" fill="white" stroke="white" stroke-width="0.158036" stroke-miterlimit="10"/>
<path d="M69.8046 10.5125V2.11288H70.8792V10.5125H69.8046Z" fill="white" stroke="white" stroke-width="0.158036" stroke-miterlimit="10"/>
<path d="M75.6756 10.5125H74.593V3.14802H72.2462V2.11288H78.0145V3.14802H75.6677V10.5125H75.6756Z" fill="white" stroke="white" stroke-width="0.158036" stroke-miterlimit="10"/>
<path d="M88.9427 9.42998C88.113 10.2834 87.0937 10.7022 85.861 10.7022C84.6283 10.7022 83.609 10.2755 82.7793 9.42998C81.9496 8.58449 81.5387 7.54145 81.5387 6.31668C81.5387 5.0919 81.9496 4.04886 82.7793 3.20337C83.6011 2.34998 84.6283 1.93118 85.861 1.93118C87.0937 1.93118 88.1051 2.35788 88.9348 3.21127C89.7645 4.06467 90.1754 5.0998 90.1754 6.31668C90.1754 7.53355 89.7645 8.58449 88.9348 9.42998H88.9427ZM83.5853 8.72672C84.2095 9.35887 84.9681 9.66704 85.8689 9.66704C86.7697 9.66704 87.5283 9.35097 88.1525 8.72672C88.7767 8.09458 89.0849 7.2965 89.0849 6.31668C89.0849 5.33685 88.7688 4.53087 88.1525 3.90663C87.5362 3.27449 86.7697 2.96632 85.8689 2.96632C84.9681 2.96632 84.2095 3.28239 83.5853 3.90663C82.9689 4.53877 82.6528 5.33685 82.6528 6.31668C82.6528 7.2965 82.9689 8.10248 83.5853 8.72672Z" fill="white" stroke="white" stroke-width="0.158036" stroke-miterlimit="10"/>
<path d="M91.7004 10.5125V2.11288H93.0121L97.0973 8.64767H97.1447L97.0973 7.0278V2.11288H98.1799V10.5125H97.0499L92.775 3.66164H92.7276L92.775 5.2815V10.5125H91.6925H91.7004Z" fill="white" stroke="white" stroke-width="0.158036" stroke-miterlimit="10"/>
<path d="M81.2859 22.7682C77.9908 22.7682 75.3121 25.2731 75.3121 28.7183C75.3121 32.1634 77.9988 34.6683 81.2859 34.6683C84.573 34.6683 87.2597 32.1397 87.2597 28.7183C87.2597 25.2968 84.573 22.7682 81.2859 22.7682ZM81.2859 32.3294C79.4843 32.3294 77.9276 30.8438 77.9276 28.7183C77.9276 26.5927 79.4843 25.1071 81.2859 25.1071C83.0875 25.1071 84.6442 26.569 84.6442 28.7183C84.6442 30.8675 83.0875 32.3294 81.2859 32.3294ZM68.2479 22.7682C64.9529 22.7682 62.2742 25.2731 62.2742 28.7183C62.2742 32.1634 64.9608 34.6683 68.2479 34.6683C71.5351 34.6683 74.2217 32.1397 74.2217 28.7183C74.2217 25.2968 71.5351 22.7682 68.2479 22.7682ZM68.2479 32.3294C66.4463 32.3294 64.8897 30.8438 64.8897 28.7183C64.8897 26.5927 66.4463 25.1071 68.2479 25.1071C70.0496 25.1071 71.6062 26.569 71.6062 28.7183C71.6062 30.8675 70.0496 32.3294 68.2479 32.3294ZM52.7367 24.5935V27.1221H58.7816C58.5999 28.5444 58.1257 29.5796 57.4067 30.3065C56.5296 31.1836 55.1547 32.1555 52.7367 32.1555C49.015 32.1555 46.1071 29.1529 46.1071 25.4311C46.1071 21.7094 49.015 18.7067 52.7367 18.7067C54.7438 18.7067 56.2135 19.4969 57.2882 20.5083L59.074 18.7225C57.5647 17.2765 55.5577 16.1781 52.7367 16.1781C47.6401 16.1781 43.3573 20.3266 43.3573 25.4232C43.3573 30.5199 47.6401 34.6683 52.7367 34.6683C55.4866 34.6683 57.5647 33.7675 59.1846 32.0765C60.8519 30.4092 61.3734 28.0624 61.3734 26.166C61.3734 25.5812 61.326 25.036 61.2391 24.5856H52.7367V24.5935ZM116.164 26.5532C115.667 25.2257 114.157 22.7603 111.068 22.7603C107.978 22.7603 105.45 25.1704 105.45 28.7104C105.45 32.0449 107.978 34.6604 111.36 34.6604C114.086 34.6604 115.667 32.9931 116.322 32.0212L114.292 30.67C113.612 31.6656 112.688 32.3136 111.36 32.3136C110.033 32.3136 109.084 31.7051 108.476 30.512L116.441 27.2169L116.172 26.5374L116.164 26.5532ZM108.041 28.5365C107.97 26.2371 109.827 25.0597 111.155 25.0597C112.19 25.0597 113.075 25.5812 113.367 26.324L108.041 28.5365ZM101.57 34.3127H104.185V16.8103H101.57V34.3127ZM97.287 24.0957H97.2001C96.6154 23.4004 95.4854 22.7682 94.0631 22.7682C91.0841 22.7682 88.358 25.3837 88.358 28.742C88.358 32.1002 91.0841 34.6762 94.0631 34.6762C95.4854 34.6762 96.6075 34.0441 97.2001 33.325H97.287V34.1784C97.287 36.4541 96.0701 37.671 94.1026 37.671C92.4985 37.671 91.5108 36.5173 91.0999 35.5533L88.8242 36.5015C89.4801 38.0819 91.2184 40.0178 94.1026 40.0178C97.1685 40.0178 99.7603 38.2162 99.7603 33.8149V23.1238H97.2791V24.0957H97.287ZM94.2843 32.3294C92.4827 32.3294 90.9656 30.8201 90.9656 28.742C90.9656 26.6638 92.4748 25.1071 94.2843 25.1071C96.0939 25.1071 97.4688 26.6401 97.4688 28.742C97.4688 30.8438 96.0701 32.3294 94.2843 32.3294ZM128.42 16.8103H122.162V34.3127H124.777V27.6831H128.428C131.32 27.6831 134.173 25.5892 134.173 22.2467C134.173 18.9042 131.328 16.8103 128.428 16.8103H128.42ZM128.483 25.2494H124.769V19.2519H128.483C130.435 19.2519 131.541 20.8718 131.541 22.2546C131.541 23.6374 130.435 25.2573 128.483 25.2573V25.2494ZM144.627 22.7366C142.738 22.7366 140.778 23.5663 139.965 25.4153L142.288 26.3872C142.786 25.4153 143.702 25.1071 144.674 25.1071C146.025 25.1071 147.4 25.921 147.424 27.3591V27.5409C146.95 27.2722 145.938 26.8613 144.698 26.8613C142.201 26.8613 139.656 28.2362 139.656 30.8043C139.656 33.1433 141.703 34.6525 144.002 34.6525C145.757 34.6525 146.729 33.8623 147.337 32.9457H147.424V34.2969H149.945V27.5883C149.945 24.4829 147.621 22.7445 144.627 22.7445V22.7366ZM144.318 32.3215C143.465 32.3215 142.272 31.8948 142.272 30.8359C142.272 29.4847 143.757 28.9632 145.038 28.9632C146.183 28.9632 146.729 29.2082 147.424 29.5479C147.218 31.1678 145.828 32.3136 144.318 32.3136V32.3215ZM159.126 23.1159L156.132 30.7016H156.045L152.939 23.1159H150.126L154.788 33.7201L152.133 39.6227H154.859L162.042 23.1159H159.134H159.126ZM135.603 34.3127H138.218V16.8103H135.603V34.3127Z" fill="white"/>
<path d="M0 5.87517C0.000137526 1.37273 4.86257 -1.45156 8.77344 0.779467L32.0537 14.0597C35.9993 16.3109 35.9992 21.9998 32.0537 24.2511L8.77344 37.5314C4.86264 39.7624 0.000312392 36.939 0 32.4367V5.87517ZM18.8994 23.9972C17.7221 22.8059 15.7971 22.8094 14.624 24.0051L5.16211 33.6486C4.92781 33.8873 4.653 34.0413 4.36621 34.1213C5.04916 34.7252 6.08227 34.9111 6.98438 34.3967L21.1748 26.3L18.8994 23.9972ZM3.61035 30.1037L12.1611 21.3771C13.3073 20.2072 13.3033 18.3342 12.1523 17.1691L3.61035 8.52361V30.1037ZM21.3564 17.1447C20.2087 18.3144 20.2115 20.1889 21.3633 21.3547L24.1475 24.172C24.2385 24.2642 24.3167 24.3641 24.3838 24.4689L30.2637 21.1154C31.7814 20.2496 31.7814 18.0613 30.2637 17.1955L24.5215 13.9191L21.3564 17.1447ZM6.98438 3.91521C6.07162 3.39461 5.02441 3.59012 4.3418 4.21111C4.47168 4.28824 4.59492 4.38182 4.70605 4.49431L14.6113 14.5207C15.789 15.7126 17.7148 15.7085 18.8877 14.5119L21.2803 12.0705L6.98438 3.91521Z" fill="white"/>
</svg>
