<svg width="40" height="40" viewBox="0 0 40 40" fill="none" xmlns="http://www.w3.org/2000/svg">
<path fill-rule="evenodd" clip-rule="evenodd" d="M6.66699 1.66663C6.00395 1.66663 5.36807 1.93002 4.89923 2.39886C4.43038 2.8677 4.16699 3.50358 4.16699 4.16663V30.8333C4.16697 30.9945 4.21373 31.1523 4.30159 31.2875C4.38945 31.4227 4.51464 31.5295 4.66199 31.595L19.662 38.2616C19.7685 38.3089 19.8838 38.3334 20.0003 38.3334C20.1169 38.3334 20.2321 38.3089 20.3387 38.2616L35.3387 31.595C35.486 31.5295 35.6112 31.4227 35.6991 31.2875C35.7869 31.1523 35.8337 30.9945 35.8337 30.8333V4.16663C35.8337 3.83832 35.769 3.51323 35.6434 3.20992C35.5177 2.9066 35.3336 2.63101 35.1014 2.39886C34.8693 2.16671 34.5937 1.98256 34.2904 1.85693C33.9871 1.73129 33.662 1.66663 33.3337 1.66663H6.66699ZM23.7503 21.25H21.2503V7.08329H23.7503V21.25ZM13.3337 30.8333L20.0003 34.1666L26.667 30.8333H13.3337ZM13.3337 7.08329H8.75033V21.25H13.3337V18.75H11.2503V15.4166H13.3337V12.9166H11.2503V9.58329H13.3337V7.08329ZM17.5003 7.08329H14.5837V21.25H17.0837V17.0833H17.5003C18.2739 17.0833 19.0157 16.776 19.5627 16.229C20.1097 15.682 20.417 14.9402 20.417 14.1666V9.99996C20.417 9.22641 20.1097 8.48455 19.5627 7.93756C19.0157 7.39058 18.2739 7.08329 17.5003 7.08329ZM17.5003 14.5833H17.0837V9.58329H17.5003C17.6108 9.58329 17.7168 9.62719 17.795 9.70533C17.8731 9.78347 17.917 9.88945 17.917 9.99996V14.1666C17.917 14.2771 17.8731 14.3831 17.795 14.4613C17.7168 14.5394 17.6108 14.5833 17.5003 14.5833ZM24.5837 9.16663C24.5837 8.01663 25.517 7.08329 26.667 7.08329H29.167C30.317 7.08329 31.2503 8.01663 31.2503 9.16663V12.5H28.7503V9.58329H27.0837V18.75H28.7503V15.8333H31.2503V19.1666C31.2503 20.3166 30.317 21.25 29.167 21.25H26.667C25.517 21.25 24.5837 20.3166 24.5837 19.1666V9.16663ZM9.16699 27.0833H29.167V24.5833H9.16699V27.0833Z" fill="#242129"/>
</svg>
