<svg width="36" height="40" viewBox="0 0 36 40" fill="none" xmlns="http://www.w3.org/2000/svg">
<path d="M16.3877 18.7379L0.154297 35.9697C0.154297 35.9697 0.154297 35.9697 0.154297 35.9783C0.653521 37.8461 2.35777 39.2232 4.38909 39.2232C5.19818 39.2232 5.96423 38.9995 6.60978 38.6207L6.66142 38.5863L24.9347 28.0424L16.3791 18.7292L16.3877 18.7379Z" fill="#EA4335"/>
<path d="M32.8112 15.8029H32.794L24.9011 11.2152L16.0098 19.1253L24.9269 28.0425L32.7768 23.5151C34.154 22.7748 35.0836 21.3202 35.0836 19.6504C35.0836 17.9806 34.1626 16.5431 32.8026 15.8029H32.8112Z" fill="#FBBC04"/>
<path d="M0.146324 3.27039C0.0516439 3.63189 0 4.01061 0 4.39794V34.8506C0 35.2379 0.0516439 35.6166 0.146324 35.9782L16.9392 19.1853L0.146324 3.27039Z" fill="#4285F4"/>
<path d="M16.5082 19.6161L24.9089 11.2153L6.65282 0.628333C5.99005 0.232397 5.21539 0 4.38909 0C2.35777 0 0.653521 1.37717 0.154297 3.25356L16.5082 19.6074V19.6161Z" fill="#34A853"/>
</svg>
